<svg width="185" height="283" viewBox="0 0 185 283" fill="none" xmlns="http://www.w3.org/2000/svg">
<rect width="185" height="283" fill="white"/>
<rect x="70" y="95" width="16" height="16" fill="#1D4BC2" fill-opacity="0.42"/>
<rect x="70" y="95" width="16" height="16" fill="#827E7E"/>
<rect x="102" y="95" width="16" height="16" fill="#1D4BC2" fill-opacity="0.42"/>
<rect x="102" y="95" width="16" height="16" fill="#827E7E"/>
<rect x="86" y="111" width="16" height="16" fill="#1D4BC2" fill-opacity="0.42"/>
<rect x="86" y="111" width="16" height="16" fill="#827E7E"/>
<rect x="86" y="127" width="16" height="16" fill="#1D4BC2" fill-opacity="0.42"/>
<rect x="86" y="127" width="16" height="16" fill="#827E7E"/>
<rect x="86" y="143" width="16" height="16" fill="#1D4BC2" fill-opacity="0.42"/>
<rect x="86" y="143" width="16" height="16" fill="#827E7E"/>
<path d="M38.7569 179.593H41.8741V188H44.002V179.593H47.1191V177.818H38.7569V179.593ZM50.5744 183.585C50.5794 182.601 51.1809 182.024 52.046 182.024C52.9061 182.024 53.4132 182.576 53.4082 183.516V188H55.5261V183.138C55.5311 181.348 54.4771 180.264 52.8862 180.264C51.7278 180.264 50.9522 180.811 50.6042 181.711H50.5147V177.818H48.4565V188H50.5744V183.585ZM60.6729 188.149C62.5621 188.149 63.8349 187.229 64.1332 185.812L62.1744 185.683C61.9606 186.265 61.4137 186.568 60.7077 186.568C59.6488 186.568 58.9776 185.867 58.9776 184.729V184.724H64.1779V184.142C64.1779 181.547 62.6069 180.264 60.5884 180.264C58.3413 180.264 56.8846 181.86 56.8846 184.217C56.8846 186.638 58.3214 188.149 60.6729 188.149ZM58.9776 183.411C59.0224 182.541 59.6836 181.845 60.6232 181.845C61.543 181.845 62.1793 182.501 62.1843 183.411H58.9776ZM68.84 177.818V188H70.9281V181.348H71.0126L73.6475 187.95H75.0694L77.7044 181.373H77.7889V188H79.877V177.818H77.2221L74.4181 184.659H74.2988L71.4949 177.818H68.84ZM85.0611 188.149C87.3778 188.149 88.8196 186.563 88.8196 184.212C88.8196 181.845 87.3778 180.264 85.0611 180.264C82.7443 180.264 81.3026 181.845 81.3026 184.212C81.3026 186.563 82.7443 188.149 85.0611 188.149ZM85.071 186.509C84.0021 186.509 83.4553 185.529 83.4553 184.197C83.4553 182.864 84.0021 181.88 85.071 181.88C86.12 181.88 86.6669 182.864 86.6669 184.197C86.6669 185.529 86.12 186.509 85.071 186.509ZM97.0563 180.364H94.8141L93.2331 185.827H93.1536L91.5676 180.364H89.3304L92.0002 188H94.3865L97.0563 180.364ZM98.1401 188H100.258V180.364H98.1401V188ZM99.204 179.379C99.8354 179.379 100.352 178.897 100.352 178.305C100.352 177.719 99.8354 177.237 99.204 177.237C98.5776 177.237 98.0605 177.719 98.0605 178.305C98.0605 178.897 98.5776 179.379 99.204 179.379ZM105.435 188.149C107.324 188.149 108.597 187.229 108.895 185.812L106.936 185.683C106.722 186.265 106.175 186.568 105.469 186.568C104.411 186.568 103.739 185.867 103.739 184.729V184.724H108.94V184.142C108.94 181.547 107.369 180.264 105.35 180.264C103.103 180.264 101.646 181.86 101.646 184.217C101.646 186.638 103.083 188.149 105.435 188.149ZM103.739 183.411C103.784 182.541 104.445 181.845 105.385 181.845C106.305 181.845 106.941 182.501 106.946 183.411H103.739ZM116.675 182.541C116.487 181.134 115.353 180.264 113.424 180.264C111.47 180.264 110.183 181.169 110.188 182.641C110.183 183.784 110.903 184.525 112.395 184.823L113.717 185.087C114.384 185.221 114.687 185.464 114.697 185.847C114.687 186.3 114.195 186.623 113.454 186.623C112.698 186.623 112.196 186.3 112.067 185.678L109.984 185.788C110.183 187.249 111.425 188.149 113.449 188.149C115.428 188.149 116.844 187.14 116.849 185.634C116.844 184.53 116.124 183.869 114.642 183.565L113.26 183.287C112.549 183.133 112.286 182.889 112.29 182.521C112.286 182.064 112.803 181.766 113.459 181.766C114.195 181.766 114.632 182.168 114.737 182.661L116.675 182.541ZM122.941 182.979H118.297V184.659H122.941V182.979ZM126.923 188.144C128.052 188.144 128.782 187.652 129.155 186.941H129.215V188H131.224V182.849C131.224 181.03 129.682 180.264 127.982 180.264C126.153 180.264 124.949 181.139 124.656 182.531L126.615 182.69C126.759 182.183 127.211 181.81 127.972 181.81C128.693 181.81 129.106 182.173 129.106 182.8V182.83C129.106 183.322 128.584 183.386 127.256 183.516C125.745 183.655 124.388 184.162 124.388 185.867C124.388 187.379 125.466 188.144 126.923 188.144ZM127.53 186.683C126.878 186.683 126.411 186.379 126.411 185.798C126.411 185.201 126.903 184.908 127.649 184.803C128.111 184.739 128.867 184.629 129.121 184.46V185.271C129.121 186.071 128.459 186.683 127.53 186.683ZM132.867 190.864H134.985V186.777H135.049C135.343 187.413 135.984 188.124 137.217 188.124C138.957 188.124 140.314 186.747 140.314 184.192C140.314 181.567 138.897 180.264 137.222 180.264C135.944 180.264 135.333 181.025 135.049 181.646H134.955V180.364H132.867V190.864ZM134.94 184.182C134.94 182.82 135.517 181.95 136.546 181.95C137.595 181.95 138.151 182.859 138.151 184.182C138.151 185.514 137.585 186.439 136.546 186.439C135.526 186.439 134.94 185.544 134.94 184.182ZM141.726 190.864H143.844V186.777H143.909C144.202 187.413 144.843 188.124 146.076 188.124C147.816 188.124 149.173 186.747 149.173 184.192C149.173 181.567 147.757 180.264 146.081 180.264C144.803 180.264 144.192 181.025 143.909 181.646H143.814V180.364H141.726V190.864ZM143.799 184.182C143.799 182.82 144.376 181.95 145.405 181.95C146.454 181.95 147.011 182.859 147.011 184.182C147.011 185.514 146.444 186.439 145.405 186.439C144.386 186.439 143.799 185.544 143.799 184.182Z" fill="black"/>
</svg>
